# xmcd
#
# Track frame offsets:
#	183
#	12840
#	21910
#	33613
#	42863
#	55298
#	71270
#	88518
#	101590
#	110435
#	120850
#	138988
#	149575
#	161953
#	174180
#	186273
#	200580
#	215738
#	227368
#	238755
#
# Disc length: 3365 seconds
# Revision: 0
# Processed by: cddbd v1.5.2PL0 Copyright (c) Steve Scherf et al.
# Submitted via: dBpowerAMP V12.0
#
DISCID=160d2314
DTITLE=Adoniran Barbosa - Especial
DYEAR=1980
DGENRE=
TTITLE0=Saudosa Maloca - Demônios da Garoa
TTITLE1=Tocar na Banda - Adoniran Barbosa
TTITLE2=O Samba do Arnesto - Demônios da Garoa
TTITLE3=Samba Italiano - Adonian Barbosa
TTITLE4=No Morro da Casa Verde - Demônios da Garoa
TTITLE5=Vide Verso Meu Endereço - Adoniran Barbosa
TTITLE6=Envelhecer é Uma Arte -  Adoniran Baebosa
TTITLE7=Bom Dia Tristeza - C Roberto Ribeiro
TTITLE8=Prova de Carinho - C Vânia Carvalho
TTITLE9=Torresmo à Milanesa - C Clementina de Jesus e Carlinhos Vergueiro
TTITLE10=Iracema - C Clara Nunes
TTITLE11=Agüenta a Mão, João - C djavan
TTITLE12=Despejo na favela - C Gonzaguinha
TTITLE13=Viaduto Santa Efigênia - C Carlinhos Vergueiro
TTITLE14=O Casamento do Moacir - C Talismâ e seu Conjunto
TTITLE15=Acende o Candieiro - C Conjunto Nosso Samba
TTITLE16=Vila Esperança - C MPB4
TTITLE17=Já Fui Uma Brasa - Adoniran Barbosa
TTITLE18=Apaga o Fogo Mané - Adoniran Barbosa
TTITLE19=Trem das Onze - Adoniran Barbosa
EXTD=
EXTT0=
EXTT1=
EXTT2=
EXTT3=
EXTT4=
EXTT5=
EXTT6=
EXTT7=
EXTT8=
EXTT9=
EXTT10=
EXTT11=
EXTT12=
EXTT13=
EXTT14=
EXTT15=
EXTT16=
EXTT17=
EXTT18=
EXTT19=
PLAYORDER=
